<?xml version="1.0" encoding="UTF-8"?>
<svg xmlns="http://www.w3.org/2000/svg" height="512" viewBox="-37 0 512 512" width="512">
  <g fill="#fff">
    <path d="m149.761719 112.746094-.429688 4.585937v69.867188c-25.425781-20.269531-62.027343-18.203125-85.011719 4.800781h-.320312v-74.878906c23.222656-23.265625 60.292969-25.15625 85.761719-4.375zm0 0"/>
    <path d="m149.332031 272.535156v74.984375c-25.472656-20.4375-62.253906-18.414062-85.332031 4.695313v-74.882813h.320312c22.984376-23.003906 59.585938-25.070312 85.011719-4.796875zm0 0"/>
    <path d="m245.332031 192v85.332031c-25.023437 24.964844-65.53125 24.964844-90.558593 0-1.683594-1.738281-3.503907-3.34375-5.441407-4.796875v-85.335937c1.9375 1.457031 3.757813 3.058593 5.441407 4.800781 25.027343 24.960938 65.535156 24.960938 90.558593 0zm0 0"/>
    <path d="m331.09375 112.746094-.425781 4.585937v70.082031c-25.449219-20.46875-62.226563-18.492187-85.335938 4.585938v-74.667969l-.105469-.105469.105469-.105468c23.222657-23.265625 60.292969-25.15625 85.761719-4.375zm0 0"/>
    <path d="m426.667969 192v85.332031h-.320313c-24.988281 24.957031-65.46875 24.957031-90.453125 0-1.640625-1.644531-3.386719-3.175781-5.226562-4.585937v-85.332032c1.839843 1.410157 3.585937 2.941407 5.226562 4.585938 24.984375 24.957031 65.464844 24.957031 90.453125 0zm0 0"/>
    <path d="m330.667969 272.746094v74.773437c-25.421875-20.4375-62.148438-18.460937-85.226563 4.585938l-.109375-.105469v-74.667969c23.109375-23.074219 59.886719-25.050781 85.335938-4.585937zm0 0"/>
  </g>
  <path d="m336 117.121094c12.015625 12.035156 28.324219 18.800781 45.332031 18.800781 17.007813 0 33.320313-6.765625 45.335938-18.800781v74.878906h-.320313c-24.988281 24.957031-65.46875 24.957031-90.453125 0-1.640625-1.644531-3.386719-3.175781-5.226562-4.585938v-70.082031l.425781-4.585937c1.734375 1.339844 3.375 2.800781 4.90625 4.375zm0 0" fill="#5a6881"/>
  <path d="m426.667969 277.332031v74.882813c-12.015625 12.035156-28.328125 18.800781-45.335938 18.800781-17.007812 0-33.316406-6.765625-45.332031-18.800781-1.671875-1.679688-3.453125-3.25-5.332031-4.695313v-74.773437c1.839843 1.410156 3.585937 2.941406 5.226562 4.585937 24.984375 24.957031 65.464844 24.957031 90.453125 0zm0 0" fill="#5a6881"/>
  <path d="m330.667969 187.414062v85.332032c-25.449219-20.464844-62.226563-18.488282-85.335938 4.585937v-85.332031c23.109375-23.078125 59.886719-25.054688 85.335938-4.585938zm0 0" fill="#5a6881"/>
  <path d="m245.332031 352 .109375.105469-.109375.109375c-12.015625 12.035156-28.324219 18.800781-45.332031 18.800781s-33.316406-6.765625-45.332031-18.800781c-1.675781-1.679688-3.457031-3.25-5.335938-4.695313v-74.984375c1.9375 1.453125 3.757813 3.058594 5.441407 4.796875 25.027343 24.964844 65.535156 24.964844 90.558593 0zm0 0" fill="#5a6881"/>
  <path d="m154.667969 117.121094c11.988281 12.03125 28.269531 18.800781 45.257812 18.824218 16.984375.019532 33.28125-6.714843 45.300781-18.71875l.105469.105469v74.667969c-25.023437 24.960938-65.53125 24.960938-90.558593 0-1.683594-1.742188-3.503907-3.34375-5.441407-4.800781v-69.867188l.429688-4.585937c1.734375 1.339844 3.375 2.800781 4.90625 4.375zm0 0" fill="#5a6881"/>
  <path d="m149.332031 187.199219v85.335937c-25.425781-20.273437-62.027343-18.207031-85.011719 4.796875h-.320312v-85.332031h.320312c22.984376-23.003906 59.585938-25.070312 85.011719-4.800781zm0 0" fill="#5a6881"/>
  <path d="m42.667969 10.667969c17.671875 0 32 14.324219 32 32 .0625 9.101562-3.828125 17.78125-10.667969 23.785156v-13.121094h-42.667969v13.121094c-6.835937-6.003906-10.730469-14.683594-10.664062-23.785156 0-17.675781 14.324219-32 32-32zm0 0" fill="#d63031"/>
  <path d="m64 352.214844v159.785156h-42.667969v-445.546875c12.113281 10.953125 30.554688 10.953125 42.667969 0zm0 0" fill="#b2bec3"/>
  <path d="m64 64v2.453125c-12.113281 10.953125-30.554688 10.953125-42.667969 0v-13.121094h42.667969zm0 0" fill="#d63031"/>
  <path d="m430.753906 107.273438c-3.988281-1.652344-8.574218-.742188-11.628906 2.304687-20.882812 20.832031-54.6875 20.832031-75.574219 0-1.78125-1.828125-3.6875-3.53125-5.707031-5.097656-29.710938-24.382813-73.097656-22.140625-100.136719 5.171875-20.894531 20.757812-54.636719 20.722656-75.488281-.074219-1.78125-1.828125-3.6875-3.53125-5.707031-5.097656-23.125-18.988281-55.386719-22.25-81.84375-8.277344v-25.675781c6.839843-7.671875 10.632812-17.582032 10.664062-27.859375 0-23.566407-19.101562-42.667969-42.664062-42.667969-23.566407 0-42.667969 19.101562-42.667969 42.667969.03125 10.277343 3.824219 20.1875 10.667969 27.859375v441.472656h21.332031v-428.191406c3.476562.957031 7.0625 1.46875 10.667969 1.523437 3.605469-.054687 7.1875-.566406 10.664062-1.523437v428.191406h21.335938v-154.835938c19.445312-16.859374 48.179687-17.351562 68.191406-1.164062 1.5 1.15625 2.925781 2.410156 4.265625 3.753906 14.03125 14.050782 33.078125 21.9375 52.933594 21.921875 19.859375-.015625 38.890625-7.933593 52.902344-22.007812 19.292968-19.296875 50.054687-20.882813 71.230468-3.667969 1.503906 1.15625 2.929688 2.410156 4.265625 3.753906 14.019531 14.035156 33.039063 21.921875 52.875 21.921875 19.835938 0 38.859375-7.886719 52.875-21.921875 2-2 3.125-4.710937 3.125-7.539062v-235.09375c0-4.3125-2.597656-8.195313-6.578125-9.847656zm-14.753906 164.8125c-21.03125 18.390624-52.703125 17.386718-72.535156-2.292969-.710938-.714844-1.394532-1.207031-2.132813-1.855469v-58.09375c22.582031 14.25 51.050781 15.355469 74.667969 2.902344zm-341.332031-74.871094c17.941406-15.660156 44.136719-17.40625 64-4.265625v60.917969c-20.660157-8.773438-44.175781-7.761719-64 2.761718zm85.332031 12.480468c22.554688 14.253907 50.976562 15.472657 74.667969 3.199219v59.4375c-21.085938 18.152344-52.582031 17.046875-72.34375-2.539062-.679688-.683594-1.503907-1.460938-2.324219-2.230469zm96-12.800781c18.039062-15.53125 44.230469-17.101562 64-3.839843v60.886718c-20.613281-8.863281-44.125-7.960937-64 2.453125zm160-58.898437v48.703125c-21.03125 18.390625-52.703125 17.386719-72.535156-2.292969-.710938-.714844-1.394532-1.207031-2.132813-1.855469v-47.832031c22.515625 14.34375 50.964844 15.609375 74.667969 3.328125zm-96-19.925782v50.539063c-20.617188-8.859375-44.125-7.957031-64 2.460937v-49.066406c18.03125-15.542968 44.222656-17.132812 64-3.882812zm-85.332031 19.890626v48.992187c-21.085938 18.152344-52.582031 17.046875-72.34375-2.539063-.679688-.679687-1.503907-1.460937-2.324219-2.226562v-47.277344c22.570312 14.230469 50.992188 15.410156 74.667969 3.105469zm-96-19.890626v50.464844c-20.660157-8.777344-44.175781-7.761718-64 2.761719v-49.21875c18.011719-15.570313 44.207031-17.191406 64-3.957031zm-110.175781-59.519531-.152344-.128906c-4.503906-3.992187-7.058594-9.738281-7.007813-15.753906 0-11.785157 9.550781-21.335938 21.335938-21.335938 11.78125 0 21.332031 9.550781 21.332031 21.335938.039062 6.082031-2.574219 11.882812-7.15625 15.882812-8.148438 7.019531-20.207031 7.019531-28.351562 0zm46.175781 272.765625v-48.765625c17.941406-15.664062 44.136719-17.410156 64-4.269531v50.496094c-20.628907-8.839844-44.140625-7.90625-64 2.539062zm87.464843 13.335938c-.714843-.714844-1.449218-1.386719-2.132812-2.058594v-47.5625c22.554688 14.25 50.976562 15.46875 74.667969 3.199219v49.066406c-21.058594 18.453125-52.847657 17.316406-72.535157-2.59375zm93.867188-13.3125v-49.066406c18.039062-15.535157 44.230469-17.105469 64-3.839844v50.3125c-20.632812-8.835938-44.152344-7.882813-64 2.59375zm125.332031 29c-14.195312.035156-27.8125-5.617188-37.8125-15.6875-.714843-.714844-1.449219-1.386719-2.132812-2.058594v-47.414062c22.578125 14.246093 51.050781 15.351562 74.667969 2.898437v49.484375c-9.667969 8.285156-21.988282 12.820312-34.722657 12.777344zm0 0"/>
</svg>
