<?xml version="1.0" encoding="UTF-8"?>
<svg xmlns="http://www.w3.org/2000/svg" height="512" viewBox="0 -21 512 512" width="512">
  <path d="m10.667969 32h448v320h-448zm0 0" fill="#64a6f0"/>
  <path d="m192 10.667969h-138.667969v298.664062h138.667969l21.332031 21.335938 21.335938 21.332031v-298.667969zm0 0" fill="#c1cad4"/>
  <path d="m277.332031 10.667969-42.664062 42.664062v298.667969l42.664062-42.667969h138.667969v-298.664062zm0 0" fill="#f8fafd"/>
  <path d="m501.332031 256v128c-.035156 11.765625-9.566406 21.296875-21.332031 21.332031h-42.667969l-53.332031 53.335938v-53.335938h-53.332031c-11.769531-.035156-21.300781-9.566406-21.335938-21.332031v-128c.035157-11.765625 9.566407-21.296875 21.335938-21.332031h149.332031c11.765625.035156 21.296875 9.566406 21.332031 21.332031zm0 0" fill="#f4d362"/>
  <g fill="#484f57">
    <path d="m269.792969 301.792969-35.125 35.125-35.125-35.125c-2-2-4.714844-3.125-7.542969-3.125h-128v-277.335938h123.585938l36.414062 36.417969v251.582031h21.332031v-251.582031l36.417969-36.417969h123.582031v181.335938h21.335938v-160h21.332031v160h21.332031v-170.667969c0-5.890625-4.773437-10.667969-10.664062-10.667969h-32v-10.664062c0-5.890625-4.777344-10.667969-10.667969-10.667969h-138.667969c-2.828125 0-5.539062 1.125-7.539062 3.125l-35.125 35.125-35.125-35.125c-2-2-4.714844-3.125-7.542969-3.125h-138.667969c-5.890625 0-10.664062 4.777344-10.664062 10.667969v10.664062h-32c-5.890625 0-10.667969 4.777344-10.667969 10.667969v320c0 5.890625 4.777344 10.667969 10.667969 10.667969h181.332031v-21.335938h-170.667969v-298.664062h21.335938v266.664062c0 5.890625 4.773437 10.667969 10.664062 10.667969h134.253907l39.539062 39.542969c4.164062 4.164062 10.917969 4.164062 15.082031 0l39.542969-39.542969h6.25v-21.332031h-10.667969c-2.828125 0-5.539062 1.125-7.539062 3.125zm0 0"/>
    <path d="m117.332031 213.332031v21.335938h64v-21.335938h-21.332031v-74.664062c0-5.890625-4.777344-10.667969-10.667969-10.667969h-32v21.332031h21.335938v64zm0 0"/>
    <path d="m138.667969 85.332031h21.332031v21.335938h-21.332031zm0 0"/>
    <path d="m480 224h-149.332031c-17.675781 0-32 14.328125-32 32v128c0 17.671875 14.324219 32 32 32h42.664062v42.667969c.003907 4.3125 2.601563 8.199219 6.585938 9.851562 3.984375 1.648438 8.574219.738281 11.625-2.3125l50.207031-50.207031h38.25c17.671875 0 32-14.328125 32-32v-128c0-17.671875-14.328125-32-32-32zm10.667969 160c0 5.890625-4.777344 10.667969-10.667969 10.667969h-42.667969c-2.828125 0-5.539062 1.125-7.539062 3.125l-35.125 35.125v-27.585938c0-5.890625-4.777344-10.664062-10.667969-10.664062h-53.332031c-5.890625 0-10.667969-4.777344-10.667969-10.667969v-128c0-5.890625 4.777344-10.667969 10.667969-10.667969h149.332031c5.890625 0 10.667969 4.777344 10.667969 10.667969zm0 0"/>
    <path d="m405.332031 266.667969c-17.671875 0-32 14.324219-32 32h21.335938c0-5.890625 4.773437-10.667969 10.664062-10.667969s10.667969 4.777344 10.667969 10.667969-4.777344 10.664062-10.667969 10.664062-10.664062 4.777344-10.664062 10.667969v21.332031h21.332031v-12.488281c14.703125-5.191406 23.527344-20.21875 20.890625-35.585938-2.636719-15.371093-15.964844-26.597656-31.558594-26.589843zm0 0"/>
    <path d="m394.667969 352h21.332031v21.332031h-21.332031zm0 0"/>
    <path d="m288 53.332031h96v21.335938h-96zm0 0"/>
    <path d="m266.667969 96h117.332031v21.332031h-117.332031zm0 0"/>
    <path d="m266.667969 138.667969h117.332031v21.332031h-117.332031zm0 0"/>
    <path d="m266.667969 181.332031h117.332031v21.335938h-117.332031zm0 0"/>
  </g>
</svg>
