<svg height="512pt" viewBox="0 -21 512 512" width="512pt" xmlns="http://www.w3.org/2000/svg"><path d="m32 10.667969h362.667969c11.78125 0 21.332031 9.550781 21.332031 21.332031v234.667969c0 11.78125-9.550781 21.332031-21.332031 21.332031h-362.667969c-11.78125 0-21.332031-9.550781-21.332031-21.332031v-234.667969c0-11.78125 9.550781-21.332031 21.332031-21.332031zm0 0" fill="#d1d8e0"/><path d="m53.332031 53.332031h320v85.335938h-320zm0 0" fill="#f1f2f2"/><path d="m192 181.332031c17.671875 0 32 14.328125 32 32 0 17.675781-14.328125 32-32 32h-106.667969c-17.671875 0-32-14.324219-32-32 0-17.671875 14.328125-32 32-32zm0 0" fill="#f1f2f2"/><path d="m501.332031 224v64h-234.664062v-64zm0 0" fill="#a4b0c0"/><path d="m501.332031 288v106.667969l-117.332031 64-117.332031-64v-106.667969zm0 0" fill="#fed049"/><g fill="#474c54"><path d="m501.332031 213.332031h-234.664062c-5.890625 0-10.667969 4.777344-10.667969 10.667969v170.667969c0 3.902343 2.128906 7.496093 5.558594 9.363281l117.332031 64c3.183594 1.738281 7.035156 1.738281 10.21875 0l117.332031-64c3.429688-1.867188 5.558594-5.460938 5.558594-9.363281v-170.667969c0-5.890625-4.777344-10.667969-10.667969-10.667969zm-10.664062 21.335938v42.664062h-213.335938v-42.664062zm-106.667969 211.847656-106.667969-58.183594v-89.664062h213.335938v89.664062zm0 0"/><path d="m21.332031 266.667969v-234.667969c0-5.890625 4.777344-10.667969 10.667969-10.667969h362.667969c5.890625 0 10.664062 4.777344 10.664062 10.667969v160h21.335938v-160c0-17.671875-14.328125-32-32-32h-362.667969c-17.671875 0-32 14.328125-32 32v234.667969c0 17.671875 14.328125 32 32 32h202.667969v-21.335938h-202.667969c-5.890625 0-10.667969-4.773437-10.667969-10.664062zm0 0"/><path d="m53.332031 42.667969c-5.890625 0-10.664062 4.773437-10.664062 10.664062v85.335938c0 5.890625 4.773437 10.664062 10.664062 10.664062h320c5.890625 0 10.667969-4.773437 10.667969-10.664062v-85.335938c0-5.890625-4.777344-10.664062-10.667969-10.664062zm309.335938 85.332031h-298.667969v-64h298.667969zm0 0"/><path d="m96 85.332031h21.332031v21.335938h-21.332031zm0 0"/><path d="m138.667969 85.332031h21.332031v21.335938h-21.332031zm0 0"/><path d="m181.332031 85.332031h21.335938v21.335938h-21.335938zm0 0"/><path d="m224 85.332031h21.332031v21.335938h-21.332031zm0 0"/><path d="m266.667969 85.332031h21.332031v21.335938h-21.332031zm0 0"/><path d="m309.332031 85.332031h21.335938v21.335938h-21.335938zm0 0"/><path d="m192 170.667969h-106.667969c-23.5625 0-42.664062 19.101562-42.664062 42.664062 0 23.566407 19.101562 42.667969 42.664062 42.667969h106.667969c23.5625 0 42.667969-19.101562 42.667969-42.667969 0-23.5625-19.105469-42.664062-42.667969-42.664062zm15.070312 57.738281c-3.984374 4.015625-9.410156 6.269531-15.070312 6.261719h-106.667969c-11.78125 0-21.332031-9.550781-21.332031-21.335938 0-11.78125 9.550781-21.332031 21.332031-21.332031h106.667969c8.621094.011719 16.386719 5.207031 19.683594 13.171875 3.300781 7.964844 1.480468 17.132813-4.613282 23.234375zm0 0"/></g></svg>