<?xml version="1.0" encoding="iso-8859-1"?>
<!-- Generator: Adobe Illustrator 19.0.0, SVG Export Plug-In . SVG Version: 6.00 Build 0)  -->
<svg version="1.1" id="Capa_1" xmlns="http://www.w3.org/2000/svg" xmlns:xlink="http://www.w3.org/1999/xlink" x="0px" y="0px"
	 viewBox="0 0 512.199 512.199" style="enable-background:new 0 0 512.199 512.199;" xml:space="preserve">
<g transform="translate(0 -1)">
	<g transform="translate(1 2)">
		<path style="fill:#607D8B;" d="M297.772,210.122l0,256c0.012,5.278-2.336,10.286-6.4,13.653l-23.211,18.944
			c-6.99,5.794-17.324,4.961-23.296-1.877c-0.191-0.18-0.363-0.381-0.512-0.597l-27.904-34.219
			c-2.582-3.188-3.997-7.162-4.011-11.264v-16.469l19.627-19.627c3.285-3.352,3.247-8.727-0.085-12.032l-13.483-13.483
			c-3.328-3.354-3.328-8.764,0-12.117l13.483-13.483c3.328-3.354,3.328-8.764,0-12.117l-13.483-13.483
			c-3.328-3.354-3.328-8.764,0-12.117l13.483-13.483c3.328-3.354,3.328-8.764,0-12.117l-17.067-17.067
			c-1.57-1.594-2.457-3.736-2.475-5.973v-63.403l59.733-2.56L297.772,210.122z"/>
		<path style="fill:#CFD8DC;" d="M272.172,211.231l0,254.891c0.012,5.278-2.336,10.286-6.4,13.653l-20.907,17.067
			c-0.191-0.18-0.363-0.381-0.512-0.597l-27.904-34.219c-2.582-3.188-3.997-7.162-4.011-11.264v-16.469l19.627-19.627
			c3.285-3.352,3.247-8.727-0.085-12.032l-13.483-13.483c-3.328-3.354-3.328-8.764,0-12.117l13.483-13.483
			c3.328-3.354,3.328-8.764,0-12.117l-13.483-13.483c-3.328-3.354-3.328-8.764,0-12.117l13.483-13.483
			c3.328-3.354,3.328-8.764,0-12.117l-17.067-17.067c-1.57-1.594-2.457-3.736-2.475-5.973v-63.403L272.172,211.231z"/>
		<path style="fill:#4CAF50;" d="M250.838,7.626c-4.278-0.004-8.553,0.252-12.8,0.768c-53.58,6.465-93.89,51.93-93.89,105.899
			s40.31,99.434,93.89,105.899c4.247,0.516,8.522,0.772,12.8,0.768c58.91,0,106.667-47.756,106.667-106.667
			S309.749,7.626,250.838,7.626z M220.972,71.626c-0.003-11.511,6.648-21.986,17.067-26.88c3.969-1.997,8.357-3.021,12.8-2.987
			c16.495,0,29.867,13.372,29.867,29.867s-13.372,29.867-29.867,29.867c-4.443,0.035-8.831-0.989-12.8-2.987
			C227.619,93.612,220.968,83.137,220.972,71.626z"/>
		<path style="fill:#2E7D32;" d="M250.838,7.626c-4.278-0.004-8.553,0.252-12.8,0.768c53.58,6.465,93.89,51.93,93.89,105.899
			s-40.31,99.434-93.89,105.899c4.247,0.516,8.522,0.772,12.8,0.768c58.91,0,106.667-47.756,106.667-106.667
			S309.749,7.626,250.838,7.626z"/>
		<g>
			<circle style="fill:#00BCD4;" cx="75.905" cy="220.959" r="17.067"/>
			<circle style="fill:#00BCD4;" cx="24.705" cy="459.893" r="17.067"/>
			<circle style="fill:#00BCD4;" cx="144.172" cy="485.493" r="17.067"/>
			<circle style="fill:#00BCD4;" cx="434.305" cy="485.493" r="17.067"/>
			<circle style="fill:#00BCD4;" cx="485.505" cy="246.559" r="17.067"/>
			<circle style="fill:#00BCD4;" cx="366.038" cy="220.959" r="17.067"/>
		</g>
	</g>
	<g>
		<path d="M290.238,73.626c0-21.208-17.192-38.4-38.4-38.4s-38.4,17.192-38.4,38.4s17.192,38.4,38.4,38.4
			C273.036,112.002,290.215,94.824,290.238,73.626z M230.505,73.626c0-11.782,9.551-21.333,21.333-21.333
			s21.333,9.551,21.333,21.333s-9.551,21.333-21.333,21.333S230.505,85.408,230.505,73.626z"/>
		<path d="M264.638,248.559c-4.713,0-8.533,3.821-8.533,8.533v25.6c0,4.713,3.821,8.533,8.533,8.533
			c4.713,0,8.533-3.821,8.533-8.533v-25.6C273.172,252.38,269.351,248.559,264.638,248.559z"/>
		<path d="M264.638,316.826c-4.713,0-8.533,3.821-8.533,8.533v17.067c0,4.713,3.821,8.533,8.533,8.533
			c4.713,0,8.533-3.821,8.533-8.533v-17.067C273.172,320.646,269.351,316.826,264.638,316.826z"/>
		<path d="M264.638,368.026c-4.713,0-8.533,3.821-8.533,8.533v17.067c0,4.713,3.821,8.533,8.533,8.533
			c4.713,0,8.533-3.82,8.533-8.533v-17.067C273.172,371.846,269.351,368.026,264.638,368.026z"/>
		<path d="M264.638,427.759c-4.713,0-8.533,3.821-8.533,8.533v17.067c0,4.713,3.821,8.533,8.533,8.533
			c4.713,0,8.533-3.82,8.533-8.533v-17.067C273.172,431.58,269.351,427.759,264.638,427.759z"/>
		<path d="M486.505,222.959c-12.454-0.024-23.109,8.939-25.219,21.212c-2.11,12.274,4.939,24.28,16.686,28.418v35.703
			c0,4.713-3.82,8.533-8.533,8.533H307.305v-34.133h42.667c14.138,0,25.6-11.462,25.6-25.6v-10.103
			c11.755-4.156,18.806-16.176,16.698-28.465c-2.108-12.289-12.763-21.271-25.231-21.271s-23.123,8.982-25.231,21.271
			c-2.108,12.289,4.943,24.309,16.698,28.465v10.103c0,4.713-3.821,8.533-8.533,8.533h-42.667v-48.435
			c46.887-25.733,69.896-80.353,55.555-131.88C348.518,33.785,300.599-1.093,247.159,1.098S148.816,41.973,138.741,94.5
			c-10.075,52.527,17.328,105.08,66.164,126.889v61.303c0,2.263,0.9,4.433,2.5,6.033l19.567,19.567l-17.067,17.067H93.972
			c-4.713,0-8.533-3.821-8.533-8.533v-69.837c11.755-4.156,18.806-16.176,16.698-28.465s-12.763-21.271-25.231-21.271
			s-23.123,8.982-25.231,21.271c-2.108,12.289,4.943,24.309,16.698,28.465v69.837c0,14.138,11.462,25.6,25.6,25.6h115.934
			l17.067,17.067l-17.067,17.067H42.772c-14.138,0-25.6,11.462-25.6,25.6v35.703c-11.755,4.156-18.806,16.176-16.698,28.465
			s12.763,21.271,25.231,21.271s23.123-8.982,25.231-21.271c2.108-12.289-4.943-24.309-16.698-28.465v-35.703
			c0-4.713,3.821-8.533,8.533-8.533h167.134l17.067,17.067l-17.067,17.067h-47.667c-14.138,0-25.6,11.462-25.6,25.6v10.103
			c-11.755,4.156-18.806,16.176-16.698,28.465s12.763,21.271,25.231,21.271c12.468,0,23.123-8.982,25.231-21.271
			c2.108-12.289-4.943-24.309-16.698-28.465v-10.103c0-4.713,3.82-8.533,8.533-8.533h42.667v7.936
			c-0.002,6.027,2.061,11.872,5.845,16.563l27.989,34.313c4.27,5.298,10.491,8.659,17.263,9.327c0.853,0.085,1.707,0.128,2.56,0.128
			c5.846,0.004,11.509-2.036,16.009-5.769l23.245-18.978c6.028-4.987,9.509-12.409,9.489-20.233v-83.021h110.933
			c4.713,0,8.533,3.82,8.533,8.533v69.837c-11.755,4.156-18.806,16.176-16.698,28.465c2.108,12.289,12.763,21.271,25.231,21.271
			s23.123-8.982,25.231-21.271c2.108-12.289-4.943-24.309-16.698-28.465v-69.837c0-14.138-11.462-25.6-25.6-25.6H307.305v-34.133
			h162.133c14.138,0,25.6-11.462,25.6-25.6v-35.703c11.747-4.137,18.796-16.144,16.686-28.418
			C509.614,231.898,498.959,222.936,486.505,222.959z M367.038,214.426c4.713,0,8.533,3.821,8.533,8.533
			c0,4.713-3.82,8.533-8.533,8.533s-8.533-3.821-8.533-8.533C358.505,218.246,362.326,214.426,367.038,214.426z M76.905,214.426
			c4.713,0,8.533,3.821,8.533,8.533c0,4.713-3.821,8.533-8.533,8.533c-4.713,0-8.533-3.821-8.533-8.533
			C68.372,218.246,72.192,214.426,76.905,214.426z M25.705,470.426c-4.713,0-8.533-3.821-8.533-8.533s3.821-8.533,8.533-8.533
			s8.533,3.82,8.533,8.533S30.418,470.426,25.705,470.426z M145.172,496.026c-4.713,0-8.533-3.82-8.533-8.533
			s3.821-8.533,8.533-8.533s8.533,3.82,8.533,8.533S149.884,496.026,145.172,496.026z M435.305,496.026
			c-4.713,0-8.533-3.82-8.533-8.533s3.82-8.533,8.533-8.533s8.533,3.82,8.533,8.533S440.018,496.026,435.305,496.026z
			 M153.705,116.293c0-54.198,43.936-98.133,98.133-98.133s98.133,43.936,98.133,98.133s-43.936,98.133-98.133,98.133
			C197.666,214.365,153.766,170.465,153.705,116.293z M290.238,468.122c0.011,2.716-1.183,5.298-3.26,7.049l-23.194,18.953
			c-1.681,1.409-3.859,2.079-6.042,1.86c-2.254-0.232-4.321-1.36-5.734-3.132l-27.972-34.295c-1.342-1.632-2.073-3.681-2.065-5.794
			v-12.937l23.1-23.1c3.331-3.332,3.331-8.734,0-12.066l-19.567-19.567l19.567-19.567c3.331-3.332,3.331-8.734,0-12.066
			l-19.567-19.567l19.567-19.567c3.331-3.332,3.331-8.734,0-12.066l-23.1-23.1v-51.738c22.481,6.211,46.337,5.28,68.267-2.662
			L290.238,468.122z M486.505,257.093c-4.713,0-8.533-3.82-8.533-8.533c0-4.713,3.821-8.533,8.533-8.533s8.533,3.821,8.533,8.533
			C495.038,253.272,491.218,257.093,486.505,257.093z"/>
	</g>
</g>
<g>
</g>
<g>
</g>
<g>
</g>
<g>
</g>
<g>
</g>
<g>
</g>
<g>
</g>
<g>
</g>
<g>
</g>
<g>
</g>
<g>
</g>
<g>
</g>
<g>
</g>
<g>
</g>
<g>
</g>
</svg>
