<svg height="496pt" viewBox="-48 0 496 496" width="496pt" xmlns="http://www.w3.org/2000/svg"><path d="m80 168c-22.089844 0-40-17.910156-40-40s17.910156-40 40-40c5.769531 0 11.222656 1.273438 16.175781 3.472656-.078125-1.152344-.175781-2.296875-.175781-3.472656 0-26.511719 21.488281-48 48-48 13.527344 0 25.726562 5.617188 34.457031 14.625 7.574219-26.898438 32.230469-46.625 61.542969-46.625 35.34375 0 64 28.65625 64 64 0 7.519531-1.367188 14.710938-3.753906 21.40625 5.851562-3.34375 12.53125-5.40625 19.753906-5.40625 22.089844 0 40 17.910156 40 40s-17.910156 40-40 40zm0 0" fill="#bad7f1"/><path d="m336 128c0-17.886719-11.824219-32.855469-28.023438-37.976562-2.695312.886718-5.296874 1.992187-7.730468 3.382812.5625-1.582031 1.058594-3.199219 1.507812-4.832031-1.898437-.269531-3.785156-.574219-5.753906-.574219-7.222656 0-13.902344 2.0625-19.753906 5.40625 2.386718-6.695312 3.753906-13.886719 3.753906-21.40625 0-31.238281-22.390625-57.207031-51.992188-62.832031-23.878906 4.542969-43.039062 22.335937-49.550781 45.457031-5.273437-5.441406-11.824219-9.609375-19.160156-12.089844-1.992187 3.832032-3.648437 7.855469-4.839844 12.089844-6.050781-6.242188-13.792969-10.800781-22.472656-13.039062-20.679687 5.335937-35.984375 24.0625-35.984375 46.414062 0 1.175781.097656 2.320312.175781 3.472656-4.953125-2.199218-10.40625-3.472656-16.175781-3.472656-2.726562 0-5.382812.28125-7.960938.800781.03125.894531.074219 1.785157.136719 2.671875-1.28125-.570312-2.601562-1.074218-3.945312-1.511718-16.308594 5.054687-28.230469 20.070312-28.230469 38.039062 0 22.089844 17.910156 40 40 40h216c22.089844 0 40-17.910156 40-40zm0 0" fill="#d5e7f6"/><path d="m8 216h48v48h-48zm0 0" fill="#f5b866"/><path d="m8 216h32v48h-32zm0 0" fill="#fbe487"/><path d="m8 296h48v48h-48zm0 0" fill="#f5b866"/><path d="m8 296h32v48h-32zm0 0" fill="#fbe487"/><path d="m392 264h-48v-48h48zm0 0" fill="#266fe8"/><path d="m376 264h-32v-48h32zm0 0" fill="#67a4f8"/><path d="m392 344h-48v-48h48zm0 0" fill="#266fe8"/><path d="m376 344h-32v-48h32zm0 0" fill="#67a4f8"/><path d="m296 472c0 8.835938-7.164062 16-16 16s-16-7.164062-16-16 7.164062-16 16-16 16 7.164062 16 16zm0 0" fill="#67a4f8"/><path d="m216 456c0 8.835938-7.164062 16-16 16s-16-7.164062-16-16 7.164062-16 16-16 16 7.164062 16 16zm0 0" fill="#f5b866"/><path d="m136 472c0 8.835938-7.164062 16-16 16s-16-7.164062-16-16 7.164062-16 16-16 16 7.164062 16 16zm0 0" fill="#7cc083"/><path d="m136 256h128v48h-128zm0 0" fill="#c6c5ca"/><path d="m136 256h104v48h-104zm0 0" fill="#e0e0e2"/><path d="m136 176h128v48h-128zm0 0" fill="#c6c5ca"/><path d="m136 176h104v48h-104zm0 0" fill="#e0e0e2"/><path d="m120 296h160v48h-160zm0 0" fill="#57565c"/><path d="m120 296h136v48h-136zm0 0" fill="#78767f"/><path d="m120 216h160v48h-160zm0 0" fill="#57565c"/><path d="m120 216h136v48h-136zm0 0" fill="#78767f"/><path d="m120 136h160v48h-160zm0 0" fill="#57565c"/><path d="m120 136h136v48h-136zm0 0" fill="#78767f"/><path d="m280 352h-160c-4.425781 0-8-3.574219-8-8v-48c0-4.425781 3.574219-8 8-8h160c4.425781 0 8 3.574219 8 8v48c0 4.425781-3.574219 8-8 8zm-152-16h144v-32h-144zm0 0"/><path d="m280 272h-160c-4.425781 0-8-3.574219-8-8v-48c0-4.425781 3.574219-8 8-8h160c4.425781 0 8 3.574219 8 8v48c0 4.425781-3.574219 8-8 8zm-152-16h144v-32h-144zm0 0"/><path d="m280 192h-160c-4.425781 0-8-3.574219-8-8v-48c0-4.425781 3.574219-8 8-8h160c4.425781 0 8 3.574219 8 8v48c0 4.425781-3.574219 8-8 8zm-152-16h144v-32h-144zm0 0"/><path d="m128 184h16v32h-16zm0 0"/><path d="m128 264h16v32h-16zm0 0"/><path d="m256 184h16v32h-16zm0 0"/><path d="m256 264h16v32h-16zm0 0"/><path d="m320 176h-40v-16h40c17.648438 0 32-14.351562 32-32s-14.351562-32-32-32c-5.425781 0-10.726562 1.472656-15.777344 4.359375-2.902344 1.640625-6.527344 1.335937-9.109375-.808594-2.5625-2.152343-3.519531-5.664062-2.410156-8.824219 2.183594-6.132812 3.296875-12.429687 3.296875-18.726562 0-30.871094-25.128906-56-56-56-24.9375 0-47.078125 16.777344-53.839844 40.800781-.785156 2.75-2.96875 4.878907-5.746094 5.582031-2.773437.679688-5.71875-.144531-7.703124-2.183593-7.613282-7.871094-17.816407-12.199219-28.710938-12.199219-22.054688 0-40 17.945312-40 40 0 .824219.0625 1.625.121094 2.425781.191406 2.804688-1.074219 5.742188-3.367188 7.351563-2.296875 1.597656-5.234375 2.152344-7.824218 1.007812-4.160157-1.847656-8.515626-2.785156-12.929688-2.785156-17.648438 0-32 14.351562-32 32s14.351562 32 32 32h40v16h-40c-26.472656 0-48-21.527344-48-48s21.527344-48 48-48c2.847656 0 5.679688.257812 8.472656.769531 3.550782-27.480469 27.09375-48.769531 55.527344-48.769531 11.175781 0 21.832031 3.246094 30.921875 9.3125 11.726563-24.808594 37.023437-41.3125 65.078125-41.3125 39.703125 0 72 32.296875 72 72 0 2.9375-.183594 5.871094-.550781 8.800781 2.808593-.535156 5.664062-.800781 8.550781-.800781 26.472656 0 48 21.527344 48 48s-21.527344 48-48 48zm0 0"/><path d="m200 480c-13.230469 0-24-10.769531-24-24s10.769531-24 24-24 24 10.769531 24 24-10.769531 24-24 24zm0-32c-4.414062 0-8 3.585938-8 8s3.585938 8 8 8 8-3.585938 8-8-3.585938-8-8-8zm0 0"/><path d="m120 496c-13.230469 0-24-10.769531-24-24s10.769531-24 24-24 24 10.769531 24 24-10.769531 24-24 24zm0-32c-4.414062 0-8 3.585938-8 8s3.585938 8 8 8 8-3.585938 8-8-3.585938-8-8-8zm0 0"/><path d="m280 496c-13.230469 0-24-10.769531-24-24s10.769531-24 24-24 24 10.769531 24 24-10.769531 24-24 24zm0-32c-4.414062 0-8 3.585938-8 8s3.585938 8 8 8 8-3.585938 8-8-3.585938-8-8-8zm0 0"/><path d="m133.65625 461.65625-11.3125-11.3125 29.65625-29.65625v-76.6875h16v80c0 2.128906-.839844 4.160156-2.34375 5.65625zm0 0"/><path d="m266.34375 461.65625-32-32c-1.503906-1.496094-2.34375-3.527344-2.34375-5.65625v-80h16v76.6875l29.65625 29.65625zm0 0"/><path d="m192 344h16v96h-16zm0 0"/><path d="m56 272h-48c-4.425781 0-8-3.574219-8-8v-48c0-4.425781 3.574219-8 8-8h48c4.425781 0 8 3.574219 8 8v48c0 4.425781-3.574219 8-8 8zm-40-16h32v-32h-32zm0 0"/><path d="m56 232h64v16h-64zm0 0"/><path d="m56 352h-48c-4.425781 0-8-3.574219-8-8v-48c0-4.425781 3.574219-8 8-8h48c4.425781 0 8 3.574219 8 8v48c0 4.425781-3.574219 8-8 8zm-40-16h32v-32h-32zm0 0"/><path d="m56 312h64v16h-64zm0 0"/><path d="m24 264h16v32h-16zm0 0"/><path d="m392 272h-48c-4.425781 0-8-3.574219-8-8v-48c0-4.425781 3.574219-8 8-8h48c4.425781 0 8 3.574219 8 8v48c0 4.425781-3.574219 8-8 8zm-40-16h32v-32h-32zm0 0"/><path d="m280 232h64v16h-64zm0 0"/><path d="m392 352h-48c-4.425781 0-8-3.574219-8-8v-48c0-4.425781 3.574219-8 8-8h48c4.425781 0 8 3.574219 8 8v48c0 4.425781-3.574219 8-8 8zm-40-16h32v-32h-32zm0 0"/><path d="m280 312h64v16h-64zm0 0"/><path d="m360 264h16v32h-16zm0 0"/></svg>