<svg height="512pt" viewBox="0 0 512 512" width="512pt" xmlns="http://www.w3.org/2000/svg"><path d="m502 30v452c0 11.050781-8.949219 20-20 20h-452c-11.050781 0-20-8.949219-20-20v-452c0-11.050781 8.949219-20 20-20h452c11.050781 0 20 8.949219 20 20zm0 0" fill="#ff641a"/><path d="m216 446h-60c0-49.5-40.5-90-90-90v-60c82.800781 0 150 67.199219 150 150zm0 0" fill="#f2f2f2"/><path d="m336 446h-60c0-115.800781-94.199219-210-210-210v-60c148.800781 0 270 121.199219 270 270zm0 0" fill="#f2f2f2"/><path d="m456 446h-60c0-182.101562-147.898438-330-330-330v-60c215.101562 0 390 174.898438 390 390zm0 0" fill="#f2f2f2"/><g fill="#020202"><path d="m66 286c-5.523438 0-10 4.476562-10 10v60c0 5.523438 4.476562 10 10 10 44.113281 0 80 35.886719 80 80 0 5.523438 4.476562 10 10 10h60c5.523438 0 10-4.476562 10-10 0-88.226562-71.773438-160-160-160zm99.503906 150c-4.707031-47.171875-42.332031-84.796875-89.503906-89.503906v-40.144532c69.238281 4.914063 124.734375 60.410157 129.644531 129.648438zm0 0"/><path d="m276 456h60c5.523438 0 10-4.476562 10-10 0-154.394531-125.605469-280-280-280-5.523438 0-10 4.476562-10 10v60c0 5.523438 4.476562 10 10 10 110.28125 0 200 89.71875 200 200 0 5.523438 4.476562 10 10 10zm-200-229.773438v-40.035156c135.425781 5.148438 244.660156 114.382813 249.8125 249.808594h-40.035156c-5.101563-113.363281-96.414063-204.675781-209.777344-209.773438zm0 0"/><path d="m56 56v60c0 5.523438 4.476562 10 10 10 176.449219 0 320 143.550781 320 320 0 5.523438 4.476562 10 10 10h60c5.523438 0 10-4.476562 10-10 0-220.5625-179.4375-400-400-400-5.523438 0-10 4.476562-10 10zm20 10.128906c201.621094 5.226563 364.644531 168.25 369.871094 369.871094h-40.015625c-5.207031-179.558594-150.296875-324.648438-329.855469-329.855469zm0 0"/><path d="m266 10c0 5.523438-4.476562 10-10 10s-10-4.476562-10-10 4.476562-10 10-10 10 4.476562 10 10zm0 0"/><path d="m482 0h-181c-5.523438 0-10 4.476562-10 10s4.476562 10 10 10h181c5.515625 0 10 4.484375 10 10v452c0 5.515625-4.484375 10-10 10h-452c-5.515625 0-10-4.484375-10-10v-452c0-5.515625 4.484375-10 10-10h181c5.523438 0 10-4.476562 10-10s-4.476562-10-10-10h-181c-16.542969 0-30 13.457031-30 30v452c0 16.542969 13.457031 30 30 30h452c16.542969 0 30-13.457031 30-30v-452c0-16.542969-13.457031-30-30-30zm0 0"/></g></svg>