<svg viewBox="0 0 707.499 664" xmlns="http://www.w3.org/2000/svg" xmlns:xlink="http://www.w3.org/1999/xlink" id="graph-div" fill="#333333" font-family="trebuchet ms,verdana,arial,Arial" font-size="16" overflow="hidden"><defs><marker refY="9" markerWidth="18" markerHeight="18" markerUnits="strokeWidth" orient="auto" id="ONLY_ONE_START" overflow="hidden"><path d="M9 0 9 18M15 0 15 18" stroke="#808080" fill="none"/></marker></defs><defs><marker refX="18" refY="9" markerWidth="18" markerHeight="18" markerUnits="strokeWidth" orient="auto" id="ONLY_ONE_END" overflow="hidden"><path d="M3 0 3 18M9 0 9 18" stroke="#808080" fill="none"/></marker></defs><defs><marker refY="9" markerWidth="30" markerHeight="18" markerUnits="strokeWidth" orient="auto" id="ZERO_OR_ONE_START" overflow="hidden"><circle cx="21" cy="9" r="6" stroke="#808080" fill="#FFFFFF"/><path d="M9 0 9 18" stroke="#808080" fill="none"/></marker></defs><defs><marker refX="30" refY="9" markerWidth="30" markerHeight="18" markerUnits="strokeWidth" orient="auto" id="ZERO_OR_ONE_END" overflow="hidden"><circle cx="9" cy="9" r="6" stroke="#808080" fill="#FFFFFF"/><path d="M21 0 21 18" stroke="#808080" fill="none"/></marker></defs><defs><marker refX="18" refY="18" markerWidth="45" markerHeight="36" markerUnits="strokeWidth" orient="auto" id="ONE_OR_MORE_START" overflow="hidden"><path d="M0 18C12 6 24 6 36 18 24 30 12 30 0 18M42 9 42 27" stroke="#808080" fill="none"/></marker></defs><defs><marker refX="27" refY="18" markerWidth="45" markerHeight="36" markerUnits="strokeWidth" orient="auto" id="ONE_OR_MORE_END" overflow="hidden"><path d="M3 9 3 27M9 18C21 6 33 6 45 18 33 30 21 30 9 18" stroke="#808080" fill="none"/></marker></defs><defs><marker refX="18" refY="18" markerWidth="57" markerHeight="36" markerUnits="strokeWidth" orient="auto" id="ZERO_OR_MORE_START" overflow="hidden"><circle cx="48" cy="18" r="6" stroke="#808080" fill="#FFFFFF"/><path d="M0 18C12 6 24 6 36 18 24 30 12 30 0 18" stroke="#808080" fill="none"/></marker></defs><defs><marker refX="39" refY="18" markerWidth="57" markerHeight="36" markerUnits="strokeWidth" orient="auto" id="ZERO_OR_MORE_END" overflow="hidden"><circle cx="9" cy="18" r="6" stroke="#808080" fill="#FFFFFF"/><path d="M21 18C33 6 45 6 57 18 45 30 33 30 21 18" stroke="#808080" fill="none"/></marker></defs><g></g><path d="M333.461 179.607 348.305 191.006C363.149 202.405 392.838 225.202 407.682 246.768 422.526 268.333 422.526 288.667 422.526 298.833L422.526 309" stroke="#808080" fill="none" marker-start="url(#ZERO_OR_MORE_START)" marker-end="url(#ONLY_ONE_END)"/><path d="M104.824 454 104.824 462.333C104.824 470.667 104.824 487.333 110.175 505.833 115.526 524.333 126.228 544.667 131.579 554.833L136.93 565" stroke="#808080" fill="none" marker-start="url(#ONLY_ONE_START)" marker-end="url(#ONLY_ONE_END)"/><path d="M377.151 443 370.265 453.167C363.38 463.333 349.609 483.667 323.352 504 297.095 524.333 258.352 544.667 238.98 554.833L219.608 565" stroke="#808080" fill="none" marker-start="url(#ONLY_ONE_START)" marker-end="url(#ONLY_ONE_END)"/><path d="M448.698 443 452.67 453.167C456.641 463.333 464.584 483.667 480.048 502.167 495.511 520.667 518.496 537.333 529.989 545.667L541.481 554" stroke="#808080" fill="none" marker-start="url(#ONLY_ONE_START)" marker-end="url(#ONLY_ONE_END)"/><path d="M573.62 173.941 586.94 186.284C600.26 198.627 626.9 223.314 640.22 256.99 653.541 290.667 653.541 333.333 653.541 376 653.541 418.667 653.541 461.333 649.155 491 644.769 520.667 635.997 537.333 631.611 545.667L627.225 554" stroke="#808080" fill="none" marker-start="url(#ONLY_ONE_START)" marker-end="url(#ONLY_ONE_END)"/><path d="M149.564 177.461 133.774 189.217C117.984 200.974 86.4042 224.487 73.8695 244.577 61.3348 264.667 67.8453 281.333 71.1005 289.667L74.3557 298" stroke="#808080" fill="none" marker-start="url(#ZERO_OR_ONE_START)" marker-end="url(#ONLY_ONE_END)"/><path d="M433.461 145.388 400.524 162.49C367.587 179.592 301.713 213.796 260.246 239.231 218.779 264.667 201.72 281.333 193.191 289.667L184.661 298" stroke="#808080" fill="none" marker-start="url(#ZERO_OR_MORE_START)" marker-end="url(#ONLY_ONE_END)"/><g id="entity-users-33ae1e26-be31-5c1d-bf65-e859e9d0308e" transform="translate(333.975 309)"><rect x="0" y="0" width="177.103" height="134" stroke="#9370DB" fill="#ECECFF"/><text id="text-entity-users-33ae1e26-be31-5c1d-bf65-e859e9d0308e" font-size="12" text-anchor="middle" transform="translate(88.5513 12)" x="0" y="0">users</text><rect x="0" y="24" width="29.6406" height="22" stroke="#9370DB" fill="#FFFFFF"/><text id="text-entity-users-33ae1e26-be31-5c1d-bf65-e859e9d0308e-attr-1-type" font-size="10.2" transform="translate(5 35)" x="0" y="0">int</text><rect x="29.6406" y="24" width="78.4201" height="22" stroke="#9370DB" fill="#FFFFFF"/><text id="text-entity-users-33ae1e26-be31-5c1d-bf65-e859e9d0308e-attr-1-name" font-size="10.2" transform="translate(34.6406 35)" x="0" y="0">id</text><rect x="108.061" y="24" width="69.0419" height="22" stroke="#9370DB" fill="#FFFFFF"/><text id="text-entity-users-33ae1e26-be31-5c1d-bf65-e859e9d0308e-attr-1-comment" font-size="10.2" transform="translate(113.061 35)" x="0" y="0">PRIMARY KEY</text><rect x="0" y="46" width="29.6406" height="22" stroke="#9370DB" fill="#F2F2F2"/><text id="text-entity-users-33ae1e26-be31-5c1d-bf65-e859e9d0308e-attr-2-type" font-size="10.2" transform="translate(5 57)" x="0" y="0">str</text><rect x="29.6406" y="46" width="78.4201" height="22" stroke="#9370DB" fill="#F2F2F2"/><text id="text-entity-users-33ae1e26-be31-5c1d-bf65-e859e9d0308e-attr-2-name" font-size="10.2" transform="translate(34.6406 57)" x="0" y="0">username</text><rect x="108.061" y="46" width="69.0419" height="22" stroke="#9370DB" fill="#F2F2F2"/><text id="text-entity-users-33ae1e26-be31-5c1d-bf65-e859e9d0308e-attr-2-comment" font-size="10.2" transform="translate(113.061 57)" x="0" y="0">NOT NULL</text><rect x="0" y="68" width="29.6406" height="22" stroke="#9370DB" fill="#FFFFFF"/><text id="text-entity-users-33ae1e26-be31-5c1d-bf65-e859e9d0308e-attr-3-type" font-size="10.2" transform="translate(5 79)" x="0" y="0">str</text><rect x="29.6406" y="68" width="78.4201" height="22" stroke="#9370DB" fill="#FFFFFF"/><text id="text-entity-users-33ae1e26-be31-5c1d-bf65-e859e9d0308e-attr-3-name" font-size="10.2" transform="translate(34.6406 79)" x="0" y="0">email</text><rect x="108.061" y="68" width="69.0419" height="22" stroke="#9370DB" fill="#FFFFFF"/><text id="text-entity-users-33ae1e26-be31-5c1d-bf65-e859e9d0308e-attr-3-comment" font-size="10.2" transform="translate(113.061 79)" x="0" y="0">NOT NULL</text><rect x="0" y="90" width="29.6406" height="22" stroke="#9370DB" fill="#F2F2F2"/><text id="text-entity-users-33ae1e26-be31-5c1d-bf65-e859e9d0308e-attr-4-type" font-size="10.2" transform="translate(5 101)" x="0" y="0">str</text><rect x="29.6406" y="90" width="78.4201" height="22" stroke="#9370DB" fill="#F2F2F2"/><text id="text-entity-users-33ae1e26-be31-5c1d-bf65-e859e9d0308e-attr-4-name" font-size="10.2" transform="translate(34.6406 101)" x="0" y="0">password_hash</text><rect x="108.061" y="90" width="69.0419" height="22" stroke="#9370DB" fill="#F2F2F2"/><text id="text-entity-users-33ae1e26-be31-5c1d-bf65-e859e9d0308e-attr-4-comment" font-size="10.2" transform="translate(113.061 101)" x="0" y="0">NOT NULL</text><rect x="0" y="112" width="29.6406" height="22" stroke="#9370DB" fill="#FFFFFF"/><text id="text-entity-users-33ae1e26-be31-5c1d-bf65-e859e9d0308e-attr-5-type" font-size="10.2" transform="translate(5 123)" x="0" y="0">bool</text><rect x="29.6406" y="112" width="78.4201" height="22" stroke="#9370DB" fill="#FFFFFF"/><text id="text-entity-users-33ae1e26-be31-5c1d-bf65-e859e9d0308e-attr-5-name" font-size="10.2" transform="translate(34.6406 123)" x="0" y="0">is_admin</text><rect x="108.061" y="112" width="69.0419" height="22" stroke="#9370DB" fill="#FFFFFF"/><text id="text-entity-users-33ae1e26-be31-5c1d-bf65-e859e9d0308e-attr-5-comment" font-size="10.2" transform="translate(113.061 123)" x="0" y="0">NOT NULL</text></g><g id="entity-rooms-7e4fced4-fa6e-5d73-9851-a52cac94d6cf" transform="translate(20 298)"><rect x="0" y="0" width="169.649" height="156" stroke="#9370DB" fill="#ECECFF"/><text id="text-entity-rooms-7e4fced4-fa6e-5d73-9851-a52cac94d6cf" font-size="12" text-anchor="middle" transform="translate(84.8244 12)" x="0" y="0">rooms</text><rect x="0" y="24" width="23.4817" height="22" stroke="#9370DB" fill="#FFFFFF"/><text id="text-entity-rooms-7e4fced4-fa6e-5d73-9851-a52cac94d6cf-attr-1-type" font-size="10.2" transform="translate(5 35)" x="0" y="0">int</text><rect x="23.4817" y="24" width="77.1252" height="22" stroke="#9370DB" fill="#FFFFFF"/><text id="text-entity-rooms-7e4fced4-fa6e-5d73-9851-a52cac94d6cf-attr-1-name" font-size="10.2" transform="translate(28.4817 35)" x="0" y="0">id</text><rect x="100.607" y="24" width="69.0419" height="22" stroke="#9370DB" fill="#FFFFFF"/><text id="text-entity-rooms-7e4fced4-fa6e-5d73-9851-a52cac94d6cf-attr-1-comment" font-size="10.2" transform="translate(105.607 35)" x="0" y="0">PRIMARY KEY</text><rect x="0" y="46" width="23.4817" height="22" stroke="#9370DB" fill="#F2F2F2"/><text id="text-entity-rooms-7e4fced4-fa6e-5d73-9851-a52cac94d6cf-attr-2-type" font-size="10.2" transform="translate(5 57)" x="0" y="0">str</text><rect x="23.4817" y="46" width="77.1252" height="22" stroke="#9370DB" fill="#F2F2F2"/><text id="text-entity-rooms-7e4fced4-fa6e-5d73-9851-a52cac94d6cf-attr-2-name" font-size="10.2" transform="translate(28.4817 57)" x="0" y="0">name</text><rect x="100.607" y="46" width="69.0419" height="22" stroke="#9370DB" fill="#F2F2F2"/><text id="text-entity-rooms-7e4fced4-fa6e-5d73-9851-a52cac94d6cf-attr-2-comment" font-size="10.2" transform="translate(105.607 57)" x="0" y="0">NOT NULL</text><rect x="0" y="68" width="23.4817" height="22" stroke="#9370DB" fill="#FFFFFF"/><text id="text-entity-rooms-7e4fced4-fa6e-5d73-9851-a52cac94d6cf-attr-3-type" font-size="10.2" transform="translate(5 79)" x="0" y="0">str</text><rect x="23.4817" y="68" width="77.1252" height="22" stroke="#9370DB" fill="#FFFFFF"/><text id="text-entity-rooms-7e4fced4-fa6e-5d73-9851-a52cac94d6cf-attr-3-name" font-size="10.2" transform="translate(28.4817 79)" x="0" y="0">url_name</text><rect x="100.607" y="68" width="69.0419" height="22" stroke="#9370DB" fill="#FFFFFF"/><text id="text-entity-rooms-7e4fced4-fa6e-5d73-9851-a52cac94d6cf-attr-3-comment" font-size="10.2" transform="translate(105.607 79)" x="0" y="0">NOT NULL</text><rect x="0" y="90" width="23.4817" height="22" stroke="#9370DB" fill="#F2F2F2"/><text id="text-entity-rooms-7e4fced4-fa6e-5d73-9851-a52cac94d6cf-attr-4-type" font-size="10.2" transform="translate(5 101)" x="0" y="0">str</text><rect x="23.4817" y="90" width="77.1252" height="22" stroke="#9370DB" fill="#F2F2F2"/><text id="text-entity-rooms-7e4fced4-fa6e-5d73-9851-a52cac94d6cf-attr-4-name" font-size="10.2" transform="translate(28.4817 101)" x="0" y="0">description</text><rect x="100.607" y="90" width="69.0419" height="22" stroke="#9370DB" fill="#F2F2F2"/><text id="text-entity-rooms-7e4fced4-fa6e-5d73-9851-a52cac94d6cf-attr-4-comment" font-size="10.2" transform="translate(105.607 101)" x="0" y="0">NOT NULL</text><rect x="0" y="112" width="23.4817" height="22" stroke="#9370DB" fill="#FFFFFF"/><text id="text-entity-rooms-7e4fced4-fa6e-5d73-9851-a52cac94d6cf-attr-5-type" font-size="10.2" transform="translate(5 123)" x="0" y="0">str</text><rect x="23.4817" y="112" width="77.1252" height="22" stroke="#9370DB" fill="#FFFFFF"/><text id="text-entity-rooms-7e4fced4-fa6e-5d73-9851-a52cac94d6cf-attr-5-name" font-size="10.2" transform="translate(28.4817 123)" x="0" y="0">instructions</text><rect x="100.607" y="112" width="69.0419" height="22" stroke="#9370DB" fill="#FFFFFF"/><text id="text-entity-rooms-7e4fced4-fa6e-5d73-9851-a52cac94d6cf-attr-5-comment" font-size="10.2" transform="translate(105.607 123)" x="0" y="0">NOT NULL</text><rect x="0" y="134" width="23.4817" height="22" stroke="#9370DB" fill="#F2F2F2"/><text id="text-entity-rooms-7e4fced4-fa6e-5d73-9851-a52cac94d6cf-attr-6-type" font-size="10.2" transform="translate(5 145)" x="0" y="0">str</text><rect x="23.4817" y="134" width="77.1252" height="22" stroke="#9370DB" fill="#F2F2F2"/><text id="text-entity-rooms-7e4fced4-fa6e-5d73-9851-a52cac94d6cf-attr-6-name" font-size="10.2" transform="translate(28.4817 145)" x="0" y="0">victim_vm_ids</text><rect x="100.607" y="134" width="69.0419" height="22" stroke="#9370DB" fill="#F2F2F2"/><text id="text-entity-rooms-7e4fced4-fa6e-5d73-9851-a52cac94d6cf-attr-6-comment" font-size="10.2" transform="translate(105.607 145)" x="0" y="0">NOT NULL</text></g><g id="entity-virtualmachines-9c7f4319-6a50-5d46-89b4-e4cd653768c2" transform="translate(149.564 20)"><rect x="0" y="0" width="183.897" height="178" stroke="#9370DB" fill="#ECECFF"/><text id="text-entity-virtualmachines-9c7f4319-6a50-5d46-89b4-e4cd653768c2" font-size="12" text-anchor="middle" transform="translate(91.9484 12)" x="0" y="0">virtual_machines</text><rect x="0" y="24" width="30.0549" height="22" stroke="#9370DB" fill="#FFFFFF"/><text id="text-entity-virtualmachines-9c7f4319-6a50-5d46-89b4-e4cd653768c2-attr-1-type" font-size="10.2" transform="translate(5 35)" x="0" y="0">uuid</text><rect x="30.0549" y="24" width="84.8001" height="22" stroke="#9370DB" fill="#FFFFFF"/><text id="text-entity-virtualmachines-9c7f4319-6a50-5d46-89b4-e4cd653768c2-attr-1-name" font-size="10.2" transform="translate(35.0549 35)" x="0" y="0">uuid</text><rect x="114.855" y="24" width="69.0419" height="22" stroke="#9370DB" fill="#FFFFFF"/><text id="text-entity-virtualmachines-9c7f4319-6a50-5d46-89b4-e4cd653768c2-attr-1-comment" font-size="10.2" transform="translate(119.855 35)" x="0" y="0">PRIMARY KEY</text><rect x="0" y="46" width="30.0549" height="22" stroke="#9370DB" fill="#F2F2F2"/><text id="text-entity-virtualmachines-9c7f4319-6a50-5d46-89b4-e4cd653768c2-attr-2-type" font-size="10.2" transform="translate(5 57)" x="0" y="0">int</text><rect x="30.0549" y="46" width="84.8001" height="22" stroke="#9370DB" fill="#F2F2F2"/><text id="text-entity-virtualmachines-9c7f4319-6a50-5d46-89b4-e4cd653768c2-attr-2-name" font-size="10.2" transform="translate(35.0549 57)" x="0" y="0">proxmox_id</text><rect x="114.855" y="46" width="69.0419" height="22" stroke="#9370DB" fill="#F2F2F2"/><text id="text-entity-virtualmachines-9c7f4319-6a50-5d46-89b4-e4cd653768c2-attr-2-comment" font-size="10.2" transform="translate(119.855 57)" x="0" y="0">NOT NULL</text><rect x="0" y="68" width="30.0549" height="22" stroke="#9370DB" fill="#FFFFFF"/><text id="text-entity-virtualmachines-9c7f4319-6a50-5d46-89b4-e4cd653768c2-attr-3-type" font-size="10.2" transform="translate(5 79)" x="0" y="0">int</text><rect x="30.0549" y="68" width="84.8001" height="22" stroke="#9370DB" fill="#FFFFFF"/><text id="text-entity-virtualmachines-9c7f4319-6a50-5d46-89b4-e4cd653768c2-attr-3-name" font-size="10.2" transform="translate(35.0549 79)" x="0" y="0">user_id</text><rect x="114.855" y="68" width="69.0419" height="22" stroke="#9370DB" fill="#FFFFFF"/><text id="text-entity-virtualmachines-9c7f4319-6a50-5d46-89b4-e4cd653768c2-attr-3-comment" font-size="10.2" transform="translate(119.855 79)" x="0" y="0">NOT NULL</text><rect x="0" y="90" width="30.0549" height="22" stroke="#9370DB" fill="#F2F2F2"/><text id="text-entity-virtualmachines-9c7f4319-6a50-5d46-89b4-e4cd653768c2-attr-4-type" font-size="10.2" transform="translate(5 101)" x="0" y="0">int</text><rect x="30.0549" y="90" width="84.8001" height="22" stroke="#9370DB" fill="#F2F2F2"/><text id="text-entity-virtualmachines-9c7f4319-6a50-5d46-89b4-e4cd653768c2-attr-4-name" font-size="10.2" transform="translate(35.0549 101)" x="0" y="0">template_vm_id</text><rect x="114.855" y="90" width="69.0419" height="22" stroke="#9370DB" fill="#F2F2F2"/><text id="text-entity-virtualmachines-9c7f4319-6a50-5d46-89b4-e4cd653768c2-attr-4-comment" font-size="10.2" transform="translate(119.855 101)" x="0" y="0">NOT NULL</text><rect x="0" y="112" width="30.0549" height="22" stroke="#9370DB" fill="#FFFFFF"/><text id="text-entity-virtualmachines-9c7f4319-6a50-5d46-89b4-e4cd653768c2-attr-5-type" font-size="10.2" transform="translate(5 123)" x="0" y="0">str</text><rect x="30.0549" y="112" width="84.8001" height="22" stroke="#9370DB" fill="#FFFFFF"/><text id="text-entity-virtualmachines-9c7f4319-6a50-5d46-89b4-e4cd653768c2-attr-5-name" font-size="10.2" transform="translate(35.0549 123)" x="0" y="0">mac_address</text><rect x="114.855" y="112" width="69.0419" height="22" stroke="#9370DB" fill="#FFFFFF"/><text id="text-entity-virtualmachines-9c7f4319-6a50-5d46-89b4-e4cd653768c2-attr-5-comment" font-size="10.2" transform="translate(119.855 123)" x="0" y="0">NOT NULL</text><rect x="0" y="134" width="30.0549" height="22" stroke="#9370DB" fill="#F2F2F2"/><text id="text-entity-virtualmachines-9c7f4319-6a50-5d46-89b4-e4cd653768c2-attr-6-type" font-size="10.2" transform="translate(5 145)" x="0" y="0">int</text><rect x="30.0549" y="134" width="84.8001" height="22" stroke="#9370DB" fill="#F2F2F2"/><text id="text-entity-virtualmachines-9c7f4319-6a50-5d46-89b4-e4cd653768c2-attr-6-name" font-size="10.2" transform="translate(35.0549 145)" x="0" y="0">room_id</text><rect x="114.855" y="134" width="69.0419" height="22" stroke="#9370DB" fill="#F2F2F2"/><text id="text-entity-virtualmachines-9c7f4319-6a50-5d46-89b4-e4cd653768c2-attr-6-comment" font-size="10.2" transform="translate(119.855 145)" x="0" y="0"></text><rect x="0" y="156" width="30.0549" height="22" stroke="#9370DB" fill="#FFFFFF"/><text id="text-entity-virtualmachines-9c7f4319-6a50-5d46-89b4-e4cd653768c2-attr-7-type" font-size="10.2" transform="translate(5 167)" x="0" y="0">int</text><rect x="30.0549" y="156" width="84.8001" height="22" stroke="#9370DB" fill="#FFFFFF"/><text id="text-entity-virtualmachines-9c7f4319-6a50-5d46-89b4-e4cd653768c2-attr-7-name" font-size="10.2" transform="translate(35.0549 167)" x="0" y="0">display_post</text><rect x="114.855" y="156" width="69.0419" height="22" stroke="#9370DB" fill="#FFFFFF"/><text id="text-entity-virtualmachines-9c7f4319-6a50-5d46-89b4-e4cd653768c2-attr-7-comment" font-size="10.2" transform="translate(119.855 167)" x="0" y="0"></text></g><g id="entity-questions-ddee1f15-f8f9-5c5e-b359-cccaf29d85f2" transform="translate(433.461 42)"><rect x="0" y="0" width="140.16" height="134" stroke="#9370DB" fill="#ECECFF"/><text id="text-entity-questions-ddee1f15-f8f9-5c5e-b359-cccaf29d85f2" font-size="12" text-anchor="middle" transform="translate(70.0798 12)" x="0" y="0">questions</text><rect x="0" y="24" width="23.4817" height="22" stroke="#9370DB" fill="#FFFFFF"/><text id="text-entity-questions-ddee1f15-f8f9-5c5e-b359-cccaf29d85f2-attr-1-type" font-size="10.2" transform="translate(5 35)" x="0" y="0">int</text><rect x="23.4817" y="24" width="47.6359" height="22" stroke="#9370DB" fill="#FFFFFF"/><text id="text-entity-questions-ddee1f15-f8f9-5c5e-b359-cccaf29d85f2-attr-1-name" font-size="10.2" transform="translate(28.4817 35)" x="0" y="0">id</text><rect x="71.1176" y="24" width="69.0419" height="22" stroke="#9370DB" fill="#FFFFFF"/><text id="text-entity-questions-ddee1f15-f8f9-5c5e-b359-cccaf29d85f2-attr-1-comment" font-size="10.2" transform="translate(76.1176 35)" x="0" y="0">PRIMARY KEY</text><rect x="0" y="46" width="23.4817" height="22" stroke="#9370DB" fill="#F2F2F2"/><text id="text-entity-questions-ddee1f15-f8f9-5c5e-b359-cccaf29d85f2-attr-2-type" font-size="10.2" transform="translate(5 57)" x="0" y="0">int</text><rect x="23.4817" y="46" width="47.6359" height="22" stroke="#9370DB" fill="#F2F2F2"/><text id="text-entity-questions-ddee1f15-f8f9-5c5e-b359-cccaf29d85f2-attr-2-name" font-size="10.2" transform="translate(28.4817 57)" x="0" y="0">room_id</text><rect x="71.1176" y="46" width="69.0419" height="22" stroke="#9370DB" fill="#F2F2F2"/><text id="text-entity-questions-ddee1f15-f8f9-5c5e-b359-cccaf29d85f2-attr-2-comment" font-size="10.2" transform="translate(76.1176 57)" x="0" y="0">NOT NULL</text><rect x="0" y="68" width="23.4817" height="22" stroke="#9370DB" fill="#FFFFFF"/><text id="text-entity-questions-ddee1f15-f8f9-5c5e-b359-cccaf29d85f2-attr-3-type" font-size="10.2" transform="translate(5 79)" x="0" y="0">str</text><rect x="23.4817" y="68" width="47.6359" height="22" stroke="#9370DB" fill="#FFFFFF"/><text id="text-entity-questions-ddee1f15-f8f9-5c5e-b359-cccaf29d85f2-attr-3-name" font-size="10.2" transform="translate(28.4817 79)" x="0" y="0">prompt</text><rect x="71.1176" y="68" width="69.0419" height="22" stroke="#9370DB" fill="#FFFFFF"/><text id="text-entity-questions-ddee1f15-f8f9-5c5e-b359-cccaf29d85f2-attr-3-comment" font-size="10.2" transform="translate(76.1176 79)" x="0" y="0">NOT NULL</text><rect x="0" y="90" width="23.4817" height="22" stroke="#9370DB" fill="#F2F2F2"/><text id="text-entity-questions-ddee1f15-f8f9-5c5e-b359-cccaf29d85f2-attr-4-type" font-size="10.2" transform="translate(5 101)" x="0" y="0">str</text><rect x="23.4817" y="90" width="47.6359" height="22" stroke="#9370DB" fill="#F2F2F2"/><text id="text-entity-questions-ddee1f15-f8f9-5c5e-b359-cccaf29d85f2-attr-4-name" font-size="10.2" transform="translate(28.4817 101)" x="0" y="0">answer</text><rect x="71.1176" y="90" width="69.0419" height="22" stroke="#9370DB" fill="#F2F2F2"/><text id="text-entity-questions-ddee1f15-f8f9-5c5e-b359-cccaf29d85f2-attr-4-comment" font-size="10.2" transform="translate(76.1176 101)" x="0" y="0">NOT NULL</text><rect x="0" y="112" width="23.4817" height="22" stroke="#9370DB" fill="#FFFFFF"/><text id="text-entity-questions-ddee1f15-f8f9-5c5e-b359-cccaf29d85f2-attr-5-type" font-size="10.2" transform="translate(5 123)" x="0" y="0">int</text><rect x="23.4817" y="112" width="47.6359" height="22" stroke="#9370DB" fill="#FFFFFF"/><text id="text-entity-questions-ddee1f15-f8f9-5c5e-b359-cccaf29d85f2-attr-5-name" font-size="10.2" transform="translate(28.4817 123)" x="0" y="0">points</text><rect x="71.1176" y="112" width="69.0419" height="22" stroke="#9370DB" fill="#FFFFFF"/><text id="text-entity-questions-ddee1f15-f8f9-5c5e-b359-cccaf29d85f2-attr-5-comment" font-size="10.2" transform="translate(76.1176 123)" x="0" y="0">NOT NULL</text></g><g id="entity-userquestiondata-60626955-3c36-57a1-8bd9-889bb8d99a6b" transform="translate(525.676 554)"><rect x="0" y="0" width="155.728" height="90" stroke="#9370DB" fill="#ECECFF"/><text id="text-entity-userquestiondata-60626955-3c36-57a1-8bd9-889bb8d99a6b" font-size="12" text-anchor="middle" transform="translate(77.8642 12)" x="0" y="0">user_question_data</text><rect x="0" y="24" width="23.4817" height="22" stroke="#9370DB" fill="#FFFFFF"/><text id="text-entity-userquestiondata-60626955-3c36-57a1-8bd9-889bb8d99a6b-attr-1-type" font-size="10.2" transform="translate(5 35)" x="0" y="0">int</text><rect x="23.4817" y="24" width="63.2048" height="22" stroke="#9370DB" fill="#FFFFFF"/><text id="text-entity-userquestiondata-60626955-3c36-57a1-8bd9-889bb8d99a6b-attr-1-name" font-size="10.2" transform="translate(28.4817 35)" x="0" y="0">user_id</text><rect x="86.6865" y="24" width="69.0419" height="22" stroke="#9370DB" fill="#FFFFFF"/><text id="text-entity-userquestiondata-60626955-3c36-57a1-8bd9-889bb8d99a6b-attr-1-comment" font-size="10.2" transform="translate(91.6865 35)" x="0" y="0">PRIMARY KEY</text><rect x="0" y="46" width="23.4817" height="22" stroke="#9370DB" fill="#F2F2F2"/><text id="text-entity-userquestiondata-60626955-3c36-57a1-8bd9-889bb8d99a6b-attr-2-type" font-size="10.2" transform="translate(5 57)" x="0" y="0">int</text><rect x="23.4817" y="46" width="63.2048" height="22" stroke="#9370DB" fill="#F2F2F2"/><text id="text-entity-userquestiondata-60626955-3c36-57a1-8bd9-889bb8d99a6b-attr-2-name" font-size="10.2" transform="translate(28.4817 57)" x="0" y="0">question_id</text><rect x="86.6865" y="46" width="69.0419" height="22" stroke="#9370DB" fill="#F2F2F2"/><text id="text-entity-userquestiondata-60626955-3c36-57a1-8bd9-889bb8d99a6b-attr-2-comment" font-size="10.2" transform="translate(91.6865 57)" x="0" y="0">PRIMARY KEY</text><rect x="0" y="68" width="23.4817" height="22" stroke="#9370DB" fill="#FFFFFF"/><text id="text-entity-userquestiondata-60626955-3c36-57a1-8bd9-889bb8d99a6b-attr-3-type" font-size="10.2" transform="translate(5 79)" x="0" y="0">int</text><rect x="23.4817" y="68" width="63.2048" height="22" stroke="#9370DB" fill="#FFFFFF"/><text id="text-entity-userquestiondata-60626955-3c36-57a1-8bd9-889bb8d99a6b-attr-3-name" font-size="10.2" transform="translate(28.4817 79)" x="0" y="0">solved_at</text><rect x="86.6865" y="68" width="69.0419" height="22" stroke="#9370DB" fill="#FFFFFF"/><text id="text-entity-userquestiondata-60626955-3c36-57a1-8bd9-889bb8d99a6b-attr-3-comment" font-size="10.2" transform="translate(91.6865 79)" x="0" y="0">NOT NULL</text></g><g id="entity-roomuser-e2b8093c-4b49-5e81-841b-72942a7098cc" transform="translate(84.7447 565)"><rect x="0" y="0" width="140.16" height="68" stroke="#9370DB" fill="#ECECFF"/><text id="text-entity-roomuser-e2b8093c-4b49-5e81-841b-72942a7098cc" font-size="12" text-anchor="middle" transform="translate(70.0798 12)" x="0" y="0">room_user</text><rect x="0" y="24" width="23.4817" height="22" stroke="#9370DB" fill="#FFFFFF"/><text id="text-entity-roomuser-e2b8093c-4b49-5e81-841b-72942a7098cc-attr-1-type" font-size="10.2" transform="translate(5 35)" x="0" y="0">int</text><rect x="23.4817" y="24" width="47.6359" height="22" stroke="#9370DB" fill="#FFFFFF"/><text id="text-entity-roomuser-e2b8093c-4b49-5e81-841b-72942a7098cc-attr-1-name" font-size="10.2" transform="translate(28.4817 35)" x="0" y="0">room_id</text><rect x="71.1176" y="24" width="69.0419" height="22" stroke="#9370DB" fill="#FFFFFF"/><text id="text-entity-roomuser-e2b8093c-4b49-5e81-841b-72942a7098cc-attr-1-comment" font-size="10.2" transform="translate(76.1176 35)" x="0" y="0">PRIMARY KEY</text><rect x="0" y="46" width="23.4817" height="22" stroke="#9370DB" fill="#F2F2F2"/><text id="text-entity-roomuser-e2b8093c-4b49-5e81-841b-72942a7098cc-attr-2-type" font-size="10.2" transform="translate(5 57)" x="0" y="0">int</text><rect x="23.4817" y="46" width="47.6359" height="22" stroke="#9370DB" fill="#F2F2F2"/><text id="text-entity-roomuser-e2b8093c-4b49-5e81-841b-72942a7098cc-attr-2-name" font-size="10.2" transform="translate(28.4817 57)" x="0" y="0">user_id</text><rect x="71.1176" y="46" width="69.0419" height="22" stroke="#9370DB" fill="#F2F2F2"/><text id="text-entity-roomuser-e2b8093c-4b49-5e81-841b-72942a7098cc-attr-2-comment" font-size="10.2" transform="translate(76.1176 57)" x="0" y="0">PRIMARY KEY</text></g><rect x="372.295" y="226.093" width="48.6152" height="14" fill="#FFFFFF" opacity="0.7"/><text id="rel5934" font-size="12" text-anchor="middle" x="396.603" y="233.093">posseder</text><rect x="61.1797" y="504.903" width="101.824" height="14" fill="#FFFFFF" opacity="0.7"/><text id="rel5935" font-size="12" text-anchor="middle" x="112.092" y="511.903">être participer par</text><rect x="275.763" y="508.276" width="63.707" height="14" fill="#FFFFFF" opacity="0.7"/><text id="rel5936" font-size="12" text-anchor="middle" x="307.616" y="515.276">participer à</text><rect x="459.811" y="500.155" width="49.2402" height="14" fill="#FFFFFF" opacity="0.7"/><text id="rel5937" font-size="12" text-anchor="middle" x="484.431" y="507.155">répondre</text><rect x="620.095" y="346.191" width="66.7383" height="14" fill="#FFFFFF" opacity="0.7"/><text id="rel5938" font-size="12" text-anchor="middle" x="653.464" y="353.191">répondu par</text><rect x="61.8099" y="220.034" width="52.9922" height="14" fill="#FFFFFF" opacity="0.7"/><text id="rel5939" font-size="12" text-anchor="middle" x="88.306" y="227.034">créé pour</text><rect x="274.99" y="206.922" width="57.9258" height="14" fill="#FFFFFF" opacity="0.7"/><text id="rel5940" font-size="12" text-anchor="middle" x="303.953" y="213.922">appartenir</text></svg>